# xmcd
#
# Track frame offsets: 
#        150
#        10980
#        23330
#        33080
#        46338
#        57211
#        68656
#        81601
#        93162
#        105289
#        115500
#        125070
#        134718
#        145188
#        157191
#        166613
#        177664
#        189592
#        201037
#        212085
#
# Disc length: 2985 seconds
#
# Revision: 0
# Processed by: cddbd v1.5.2PL0 Copyright (c) Steve Scherf et al.
# Submitted via: ExactAudioCopy v1.0b3
#
DISCID=0e0ba714
DTITLE=Various Artist - Country and Western Greatest Love Songs - 200 O
DTITLE=riginal Recordings [CD 7,10)
DYEAR=1960
DGENRE=Country
TTITLE0=Hank Williams - Why Don't You Love Me
TTITLE1=Johnny Cash - Next In Line
TTITLE2=Jim Reeves - Blue Boy
TTITLE3=Jimmy Skinner - I Found My Girl In The U.S.A.
TTITLE4=Don Gibson - Heartbrake Avenue
TTITLE5=Ray Price - Curtain In The Window
TTITLE6=Bobby Helms - Fraulein
TTITLE7=Hank Snow - My Arms Are A House
TTITLE8=Bonnie Guitar - Dark Moon
TTITLE9=Johnny Cash - The Ways Of A Women In Love
TTITLE10=Hank Locklin - Geisha Girl
TTITLE11=Marty Robbins - Stairway Of Love
TTITLE12=Johnny Horton - She Knows Why
TTITLE13=Everly Brothers - Who's Gonna Shoe Your Pretty Little Feet
TTITLE14=Webb Pierce - You'll Come Back
TTITLE15=Carl Smith - Why Why
TTITLE16=Don Gibson - Give Myself A Party
TTITLE17=Webb Pierce - Falling Back To You
TTITLE18=Jim Reeves - According To My Heart
TTITLE19=Kenny Rogers - For You Alone
EXTD=
EXTT0=
EXTT1=
EXTT2=
EXTT3=
EXTT4=
EXTT5=
EXTT6=
EXTT7=
EXTT8=
EXTT9=
EXTT10=
EXTT11=
EXTT12=
EXTT13=
EXTT14=
EXTT15=
EXTT16=
EXTT17=
EXTT18=
EXTT19=
PLAYORDER=
